<svg xmlns="http://www.w3.org/2000/svg" viewBox="0 0 512 512" width="512" height="512">
  <defs>
    <linearGradient id="face" x1="0.12" y1="0.04" x2="0.88" y2="1"><stop offset="0" stop-color="#5aa9e6"/><stop offset="0.55" stop-color="#2f7fc1"/><stop offset="1" stop-color="#1d5a94"/></linearGradient>
    <radialGradient id="light" cx="0.28" cy="0.14" r="0.9"><stop offset="0" stop-color="#ffffff" stop-opacity="0.3"/><stop offset="0.6" stop-color="#ffffff" stop-opacity="0.05"/><stop offset="1" stop-color="#ffffff" stop-opacity="0"/></radialGradient>
    <filter id="soft" x="-25%" y="-25%" width="150%" height="150%"><feDropShadow dx="0" dy="9" stdDeviation="11" flood-color="#0a2238" flood-opacity="0.34"/></filter>
  </defs>
  <rect width="512" height="512" rx="116" fill="url(#face)"/>
  <rect width="512" height="512" rx="116" fill="url(#light)"/>
  <rect x="1.5" y="1.5" width="509" height="509" rx="114.5" fill="none" stroke="#ffffff" stroke-opacity="0.16" stroke-width="3"/>
  <g filter="url(#soft)"><circle cx="326" cy="190" r="76" fill="#f3c453"/>
    <path d="M326 86 V62" transform="rotate(0 326 190)" stroke="#f3c453" stroke-width="18" stroke-linecap="round"/><path d="M326 86 V62" transform="rotate(45 326 190)" stroke="#f3c453" stroke-width="18" stroke-linecap="round"/><path d="M326 86 V62" transform="rotate(90 326 190)" stroke="#f3c453" stroke-width="18" stroke-linecap="round"/><path d="M326 86 V62" transform="rotate(135 326 190)" stroke="#f3c453" stroke-width="18" stroke-linecap="round"/><path d="M326 86 V62" transform="rotate(180 326 190)" stroke="#f3c453" stroke-width="18" stroke-linecap="round"/><path d="M326 86 V62" transform="rotate(225 326 190)" stroke="#f3c453" stroke-width="18" stroke-linecap="round"/><path d="M326 86 V62" transform="rotate(270 326 190)" stroke="#f3c453" stroke-width="18" stroke-linecap="round"/><path d="M326 86 V62" transform="rotate(315 326 190)" stroke="#f3c453" stroke-width="18" stroke-linecap="round"/>
    <path d="M166 398 a70 70 0 0 1 4 -140 a100 100 0 0 1 190 18 a62 62 0 0 1 -6 122 Z" fill="#fffdf8"/>
    <circle cx="386" cy="384" r="68" fill="#2f7fc1"/><circle cx="386" cy="384" r="56" fill="#f3c453"/><path d="M362 408 C357.2 376.8 381.2 355.2 410 360 C414.8 388.8 393.2 412.8 362 408 Z" fill="#17446f"/><path d="M362 408 L395.6 374.4" stroke="#f3c453" stroke-width="3.84" stroke-linecap="round"/></g>
</svg>
