<svg xmlns="http://www.w3.org/2000/svg" viewBox="0 0 1200 420" width="1200" height="420">
  <defs>
    <linearGradient id="bg" x1="0" y1="0" x2="1" y2="1"><stop offset="0" stop-color="#8a8be0"/><stop offset="0.6" stop-color="#5b5cc0"/><stop offset="1" stop-color="#3d3e8f"/></linearGradient>
    <radialGradient id="glow" cx="0.72" cy="0.1" r="0.7"><stop offset="0" stop-color="#ffffff" stop-opacity="0.3"/><stop offset="1" stop-color="#ffffff" stop-opacity="0"/></radialGradient>
    <pattern id="dots" width="28" height="28" patternUnits="userSpaceOnUse"><circle cx="3" cy="3" r="2" fill="#ffffff" fill-opacity="0.13"/></pattern>
    <filter id="card" x="-25%" y="-25%" width="150%" height="170%"><feDropShadow dx="0" dy="16" stdDeviation="17" flood-color="#16173d" flood-opacity="0.34"/></filter>
    <filter id="lift" x="-40%" y="-40%" width="180%" height="190%"><feDropShadow dx="0" dy="8" stdDeviation="9" flood-color="#16173d" flood-opacity="0.32"/></filter>
  </defs>
  <rect width="1200" height="420" fill="url(#bg)"/>
  <rect width="1200" height="420" fill="url(#dots)"/>
  <rect width="1200" height="420" fill="url(#glow)"/>
  <circle cx="1090" cy="-30" r="230" fill="#ffffff" fill-opacity="0.07"/>
  <circle cx="110" cy="480" r="270" fill="#000000" fill-opacity="0.07"/>
  <circle cx="190" cy="92" r="46" fill="#ffffff" fill-opacity="0.08"/>
  <g filter="url(#card)"><rect x="240" y="84" width="300" height="252" rx="26" fill="#fffdf8"/></g>
      <rect x="262" y="106" width="64" height="30" rx="15" fill="#dcdcf5"/><rect x="274" y="116" width="40" height="10" rx="5" fill="#33347a"/>
      <rect x="262" y="160" width="240" height="14" rx="7" fill="#dcdcf5"/><rect x="262" y="192" width="210" height="14" rx="7" fill="#dcdcf5"/><rect x="262" y="224" width="252" height="14" rx="7" fill="#dcdcf5"/><rect x="262" y="256" width="180" height="14" rx="7" fill="#dcdcf5"/><rect x="262" y="288" width="130" height="14" rx="7" fill="#f0f0fb"/>
    <g filter="url(#lift)"><circle cx="600" cy="210" r="42" fill="#f3c453"/></g><path d="M600 190 Q602.4 207.6 620 210 Q602.4 212.4 600 230 Q597.6 212.4 580 210 Q597.6 207.6 600 190 Z" fill="#33347a"/>
    <g filter="url(#card)"><rect x="660" y="84" width="300" height="252" rx="26" fill="#fffdf8"/></g>
      <rect x="682" y="106" width="64" height="30" rx="15" fill="#f3c453"/><rect x="694" y="116" width="40" height="10" rx="5" fill="#33347a"/>
      <rect x="682" y="160" width="230" height="14" rx="7" fill="#5b5cc0"/><rect x="682" y="192" width="250" height="14" rx="7" fill="#dcdcf5"/><rect x="682" y="224" width="200" height="14" rx="7" fill="#dcdcf5"/><rect x="682" y="256" width="220" height="14" rx="7" fill="#dcdcf5"/><rect x="682" y="288" width="150" height="14" rx="7" fill="#f0f0fb"/>
    <g filter="url(#lift)"><path d="M1010 76 Q1014.08 105.92 1044 110 Q1014.08 114.08 1010 144 Q1005.92 114.08 976 110 Q1005.92 105.92 1010 76 Z" fill="#fffdf8"/></g><path d="M1056 160 Q1057.92 174.08 1072 176 Q1057.92 177.92 1056 192 Q1054.08 177.92 1040 176 Q1054.08 174.08 1056 160 Z" fill="#f3c453"/>
</svg>
